<?xml version="1.0" encoding="UTF-8" standalone="no"?>
<!-- Created with Inkscape (http://www.inkscape.org/) -->

<svg
   xmlns:dc="http://purl.org/dc/elements/1.1/"
   xmlns:cc="http://creativecommons.org/ns#"
   xmlns:rdf="http://www.w3.org/1999/02/22-rdf-syntax-ns#"
   xmlns:svg="http://www.w3.org/2000/svg"
   xmlns="http://www.w3.org/2000/svg"
   xmlns:sodipodi="http://sodipodi.sourceforge.net/DTD/sodipodi-0.dtd"
   xmlns:inkscape="http://www.inkscape.org/namespaces/inkscape"
   width="210mm"
   height="297mm"
   viewBox="0 0 210 297"
   version="1.1"
   id="svg8"
   sodipodi:docname="attackIcon.svg"
   inkscape:version="0.92.2 (5c3e80d, 2017-08-06)">
  <defs
     id="defs2" />
  <sodipodi:namedview
     id="base"
     pagecolor="#ffffff"
     bordercolor="#666666"
     borderopacity="1.0"
     inkscape:pageopacity="0.0"
     inkscape:pageshadow="2"
     inkscape:zoom="0.41986485"
     inkscape:cx="318.43259"
     inkscape:cy="388.07413"
     inkscape:document-units="mm"
     inkscape:current-layer="layer1"
     showgrid="false"
     inkscape:measure-start="0,0"
     inkscape:measure-end="0,0"
     inkscape:window-width="1920"
     inkscape:window-height="1017"
     inkscape:window-x="-8"
     inkscape:window-y="-8"
     inkscape:window-maximized="1" />
  <metadata
     id="metadata5">
    <rdf:RDF>
      <cc:Work
         rdf:about="">
        <dc:format>image/svg+xml</dc:format>
        <dc:type
           rdf:resource="http://purl.org/dc/dcmitype/StillImage" />
      </cc:Work>
    </rdf:RDF>
  </metadata>
  <g
     inkscape:label="Capa 1"
     inkscape:groupmode="layer"
     id="layer1">
    <g
       id="g1053">
      <path
         inkscape:connector-curvature="0"
         d="m 47.375297,178.76962 c 0.995836,-2.71433 2.042646,-5.41115 3.129312,-8.093 0.767677,-1.94357 1.875862,-3.73195 2.747038,-5.62864 1.040071,-2.49274 2.417178,-4.80089 4.020733,-6.98952 1.076932,-1.38177 2.359614,-2.60093 3.446816,-3.9752 0.61262,-0.77437 0.988131,-1.39046 1.528335,-2.21629 1.44853,-2.36233 2.55737,-4.89411 3.721245,-7.39255 1.326254,-2.6338 2.850778,-5.16299 4.206225,-7.7832 1.23054,-2.86005 2.764229,-5.55546 4.633057,-8.06965 1.701776,-2.08622 3.695688,-3.92524 5.397126,-6.00954 1.48079,-1.88351 2.521744,-4.02288 3.485184,-6.18189 0.926895,-1.8039 1.857181,-3.61112 2.978723,-5.31154 1.075636,-1.55512 1.937267,-3.2121 2.686562,-4.93113 0.772715,-1.76079 1.5773,-3.51594 2.513224,-5.20271 0.696619,-1.173337 1.592668,-2.219517 2.469862,-3.269117 0.345957,-0.41697 0.693256,-0.83146 1.026587,-1.2579 0,0 3.713224,-1.54947 3.713224,-1.54947 v 0 c -0.319239,0.44227 -0.665868,0.85733 -1.020375,1.27396 -0.857852,1.059 -1.800449,2.0616 -2.520816,3.21914 -0.971551,1.662717 -1.769934,3.419157 -2.54803,5.171897 -0.739964,1.73892 -1.563764,3.42376 -2.648505,4.99371 -1.166909,1.66327 -2.057987,3.48392 -3.024077,5.25774 -0.974137,2.17888 -1.981992,4.3561 -3.455988,6.27474 -1.664555,2.11926 -3.677811,3.9466 -5.419782,6.00673 -1.897209,2.48586 -3.467109,5.15537 -4.677018,8.01865 -1.338376,2.61612 -2.823123,5.14933 -4.179472,7.75602 -1.176783,2.50692 -2.287874,5.04946 -3.706638,7.44196 -0.429192,0.67463 -1.009473,1.6217 -1.502828,2.26126 -1.068039,1.38456 -2.351802,2.59889 -3.459895,3.95104 -1.609143,2.16107 -3.026384,4.42247 -4.042432,6.90812 -0.816096,1.92222 -1.955967,3.69203 -2.759029,5.62302 -1.104329,2.65758 -2.178983,5.32959 -3.094073,8.0538 0,0 -3.644295,1.64956 -3.644295,1.64956 z"
         id="path879"
         style="opacity:1;fill:#ff0000;fill-opacity:1;stroke:#000101;stroke-width:1.01811779;stroke-miterlimit:4;stroke-dasharray:none;stroke-dashoffset:0;stroke-opacity:1;paint-order:stroke fill markers" />
      <path
         inkscape:connector-curvature="0"
         d="m 102.50559,92.975413 c 1.27078,3.18041 2.91881,6.18967 4.53983,9.200997 2.02548,3.80129 4.23953,7.5112 6.78836,10.98835 1.61517,2.20345 2.58445,3.27164 4.34244,5.34239 0.71151,0.85042 1.4307,1.69448 2.13454,2.55127 1.5767,1.91932 2.60734,3.18309 4.01379,5.22855 1.81469,2.63917 3.35742,5.43745 4.91948,8.22863 1.86723,3.46246 3.81786,6.87729 5.77427,10.28942 1.14633,1.68323 2.28393,3.35846 3.31763,5.1129 1.28185,2.32265 2.43944,4.70368 3.89959,6.9213 1.20631,1.8492 2.62571,3.54042 4.01301,5.25289 1.27526,1.50552 2.14007,3.30345 3.08423,5.02496 0.94937,2.16084 2.21967,4.12683 3.59221,6.03703 1.15911,1.60818 2.16756,3.31683 3.09319,5.06762 0.80304,1.67065 1.78074,3.2643 2.9852,4.67589 0,0 -3.32778,1.99901 -3.32778,1.99901 v 0 c -1.19461,-1.45349 -2.18744,-3.06459 -3.00431,-4.75846 -0.92308,-1.73238 -1.92743,-3.4224 -3.0617,-5.02618 -1.37677,-1.92508 -2.64136,-3.9131 -3.61149,-6.07886 -0.9378,-1.70046 -1.81962,-3.45904 -3.07057,-4.95555 -1.37678,-1.73438 -2.79277,-3.44226 -3.99582,-5.30604 -1.45197,-2.22896 -2.62944,-4.60499 -3.92797,-6.92466 -1.04419,-1.75109 -2.20167,-3.41732 -3.31301,-5.12641 -1.88849,-3.45152 -3.78843,-6.89661 -5.63283,-10.3723 -1.53916,-2.78988 -3.07027,-5.57132 -4.87862,-8.20034 -1.44183,-2.09618 -2.38152,-3.24032 -3.997,-5.21062 -0.70234,-0.85659 -1.41845,-1.70179 -2.12768,-2.55269 -1.79186,-2.12575 -2.69339,-3.12383 -4.34839,-5.3799 -2.55753,-3.48638 -4.81573,-7.18334 -6.89536,-10.97062 -1.66602,-2.99701 -3.31728,-6.005287 -4.700708,-9.145617 0,0 3.395468,-1.91296 3.395468,-1.91296 z"
         id="path881"
         style="opacity:1;fill:#ff0000;fill-opacity:1;stroke:#000101;stroke-width:1;stroke-miterlimit:4;stroke-dasharray:none;stroke-dashoffset:0;stroke-opacity:1;paint-order:stroke fill markers" />
      <ellipse
         ry="14.871898"
         rx="16.507612"
         cy="150.58258"
         cx="100.46987"
         id="path894"
         style="opacity:1;fill:#ff0000;fill-opacity:1;stroke:#000101;stroke-width:1.1362884;stroke-miterlimit:4;stroke-dasharray:none;stroke-dashoffset:0;stroke-opacity:1;paint-order:stroke fill markers" />
      <path
         inkscape:connector-curvature="0"
         d="m 70.994203,175.16435 c 1.914107,-2.55637 3.377358,-5.40743 4.97523,-8.16269 0.971849,-1.81977 2.128046,-3.53803 3.099538,-5.35772 0.566272,-1.06068 1.017685,-2.10395 1.515256,-3.19931 1.039405,-2.34896 1.834348,-4.83807 3.160268,-7.05351 0.616579,-1.03023 1.631651,-2.30926 2.353778,-3.2589 1.702377,-2.15101 3.389587,-4.30793 4.658847,-6.74706 0.718708,-1.39945 1.346858,-2.85083 1.890749,-4.32691 0.857824,-2.49634 1.858111,-4.9413 2.90372,-7.36404 0.515554,-1.27819 1.05137,-2.56036 1.845715,-3.69344 0.434567,-0.41848 0.862854,-0.83726 1.269145,-1.28447 0,0 3.606091,-1.53369 3.606091,-1.53369 v 0 c -0.36291,0.48051 -0.77702,0.94094 -1.28121,1.27694 -0.90431,1.04539 -1.402048,2.38399 -1.950072,3.63412 -1.061889,2.3983 -2.07749,4.82235 -2.881421,7.32114 -0.497409,1.50876 -1.177972,2.96393 -1.886585,4.38387 -1.259443,2.49143 -2.96522,4.67908 -4.714653,6.84623 -0.539234,0.70086 -1.898099,2.42806 -2.371597,3.19556 -1.351871,2.19129 -2.149092,4.68098 -3.162584,7.03034 -0.347347,0.78368 -1.065191,2.43987 -1.473504,3.22312 -0.955035,1.83202 -2.145858,3.53583 -3.108851,5.36369 -1.606167,2.73085 -3.058475,5.55935 -4.869527,8.16469 0,0 -3.578333,1.54204 -3.578333,1.54204 z"
         id="path912"
         style="opacity:1;fill:#000000;fill-opacity:1;stroke:#000101;stroke-width:1;stroke-miterlimit:4;stroke-dasharray:none;stroke-dashoffset:0;stroke-opacity:1;paint-order:stroke fill markers" />
      <path
         inkscape:connector-curvature="0"
         d="m 84.609417,174.78913 c 0.35165,-1.53603 0.999727,-2.98093 1.64813,-4.41371 1.358707,-2.61879 2.735759,-5.22889 4.155085,-7.81678 1.071162,-2.06954 2.352823,-4.00344 3.76391,-5.86081 0.938152,-1.1962 1.951928,-2.32407 2.638554,-3.68266 0.490424,-1.37792 1.029561,-2.74229 1.421401,-4.15157 0.353533,-1.25869 0.811134,-2.4978 1.447299,-3.64576 0.108963,-0.17751 0.207387,-0.36167 0.326884,-0.5325 0.34195,-0.48885 0.745,-0.93458 1.08845,-1.42241 0.84122,-1.19484 1.56564,-2.46956 2.30613,-3.72501 1.25415,-2.1695 2.38339,-4.39985 3.67506,-6.54802 0.11369,-0.20672 0.22738,-0.41343 0.34108,-0.62014 0,0 3.60921,-1.59166 3.60921,-1.59166 v 0 c -0.11466,0.21377 -0.22931,0.42755 -0.34396,0.64131 -1.31615,2.15502 -2.51629,4.3654 -3.74288,6.57133 -0.72865,1.25356 -1.43584,2.52953 -2.23946,3.7394 -1.32545,1.99553 0.0561,-0.11882 -1.06718,1.3805 -0.12449,0.16618 -0.22052,0.35119 -0.33078,0.52678 -0.69718,1.08382 -1.1167,2.32886 -1.49264,3.5506 -0.37881,1.43518 -0.95526,2.80439 -1.40382,4.21885 -0.628805,1.41353 -1.627749,2.56618 -2.610562,3.75837 -1.426666,1.86047 -2.788765,3.75489 -3.862341,5.84143 -1.413733,2.56099 -2.74831,5.1603 -4.092288,7.757 -0.642139,1.40794 -1.3338,2.82644 -1.637457,4.3482 0,0 -3.597825,1.67726 -3.597825,1.67726 z"
         id="path914"
         style="opacity:1;fill:#000000;fill-opacity:1;stroke:#000101;stroke-width:1.00897312;stroke-miterlimit:4;stroke-dasharray:none;stroke-dashoffset:0;stroke-opacity:1;paint-order:stroke fill markers" />
      <path
         inkscape:connector-curvature="0"
         d="m 96.459841,176.2245 c 0.633918,-2.41848 1.815968,-4.61222 3.118459,-6.72626 1.05047,-1.76169 2.23643,-3.43851 3.28083,-5.20329 0.95772,-1.67171 1.4913,-3.53035 2.15157,-5.32824 0.55235,-1.42035 0.8944,-2.90767 1.40444,-4.34197 0.55211,-1.37644 0.91044,-2.80723 1.24607,-4.24847 0.35298,-1.36476 0.65142,-2.7323 1.25914,-4.00931 0.64069,-1.14726 1.23628,-2.31423 1.81227,-3.49522 1.04747,-2.11657 1.99615,-4.27586 3.12398,-6.35443 0.56734,-1.12244 1.23074,-2.18956 1.95339,-3.21705 0,0 3.57862,-1.55488 3.57862,-1.55488 v 0 c -0.72778,1.03207 -1.46747,2.05854 -2.02188,3.20057 -0.59152,1.05886 -1.16146,2.12746 -1.67861,3.22526 -0.18067,0.38353 -0.34755,0.77341 -0.52132,1.16012 -0.149,0.36095 -0.28208,0.72889 -0.44698,1.08287 -0.13643,0.29286 -0.30396,0.57021 -0.45594,0.85531 -0.57143,1.17691 -1.12072,2.36149 -1.79085,3.48704 -0.65505,1.29306 -0.97078,2.5347 -1.32314,3.93938 -0.32301,1.45285 -0.65541,2.89903 -1.20408,4.28564 -0.55652,1.42727 -0.87685,2.93111 -1.43905,4.35733 -0.67362,1.80277 -1.18742,3.67461 -2.10221,5.37739 -1.01483,1.80389 -2.28614,3.45185 -3.33077,5.23998 -1.30118,2.05915 -2.5013,4.19612 -3.09144,6.58081 0,0 -3.522499,1.68742 -3.522499,1.68742 z"
         id="path916"
         style="opacity:1;fill:#000000;fill-opacity:1;stroke:#000101;stroke-width:1;stroke-miterlimit:4;stroke-dasharray:none;stroke-dashoffset:0;stroke-opacity:1;paint-order:stroke fill markers" />
    </g>
  </g>
</svg>
